<?xml version="1.0" standalone="no"?>
<!DOCTYPE svg PUBLIC "-//W3C//DTD SVG 20010904//EN"
 "http://www.w3.org/TR/2001/REC-SVG-20010904/DTD/svg10.dtd">
<svg version="1.0" xmlns="http://www.w3.org/2000/svg"
  viewBox="0 0 512.000000 512.000000"
 preserveAspectRatio="xMidYMid meet">

<g transform="translate(0.000000,512.000000) scale(0.100000,-0.100000)"
fill="#000000" stroke="none">
<path d="M3533 5074 c-6 -3 -43 -44 -81 -92 -38 -48 -103 -118 -143 -157 -80
-76 -268 -229 -338 -276 -69 -45 -131 -37 -131 19 0 23 38 104 53 110 4 2 7
18 7 35 0 25 -13 44 -68 98 -55 53 -92 78 -183 123 -62 31 -125 56 -139 56
-59 0 -69 -57 -15 -90 24 -15 45 -42 67 -88 l33 -67 3 -1826 2 -1826 -21 -28
c-32 -39 -68 -30 -208 53 -64 38 -147 86 -186 107 -104 56 -132 81 -163 138
l-27 52 -6 1435 c-4 1086 -9 1448 -18 1490 -23 103 -72 245 -98 284 -144 220
-443 360 -695 326 -106 -15 -274 -70 -352 -117 -33 -20 -98 -74 -143 -120 -70
-71 -90 -99 -132 -186 -71 -149 -95 -240 -95 -362 0 -82 4 -109 23 -151 27
-62 73 -107 124 -124 32 -10 42 -9 62 4 31 21 32 46 1 94 -33 50 -51 119 -42
165 19 99 159 177 320 177 62 0 188 -30 244 -59 47 -24 125 -109 118 -128 -3
-7 -2 -13 3 -13 10 0 9 10 22 -245 5 -123 7 -315 3 -434 -5 -183 -9 -216 -24
-231 -12 -12 -42 -19 -106 -24 -176 -13 -303 -78 -381 -195 -57 -84 -76 -151
-71 -254 6 -142 84 -260 197 -301 66 -23 95 -19 99 16 2 20 -9 40 -48 83 -28
31 -50 64 -48 73 6 32 71 53 160 54 95 0 130 -11 176 -55 45 -43 69 -91 82
-168 12 -69 10 -953 -3 -999 -10 -38 -88 -107 -136 -120 -141 -38 -386 -167
-456 -240 -15 -16 -31 -27 -35 -25 -4 3 -13 -2 -20 -10 -7 -8 -10 -15 -6 -15
3 0 -15 -20 -40 -45 -51 -51 -115 -175 -139 -270 -21 -81 -20 -274 1 -346 46
-154 145 -252 314 -311 57 -19 86 -22 230 -23 186 0 242 11 369 71 120 56 252
159 320 249 56 74 73 180 45 278 -6 18 -6 18 -26 0 -11 -10 -32 -38 -45 -63
-70 -123 -108 -158 -249 -229 -115 -57 -215 -81 -365 -88 -148 -7 -183 2 -245
59 -63 58 -88 123 -89 233 0 77 4 98 27 147 42 90 96 142 181 172 40 14 99 31
132 37 83 17 265 14 354 -5 87 -18 209 -74 290 -130 54 -38 83 -68 189 -195
42 -50 44 -51 99 -51 53 0 78 11 472 211 229 116 526 269 661 340 254 133 281
143 336 114 15 -7 96 -86 180 -175 190 -200 216 -245 224 -389 3 -53 9 -102
13 -109 5 -6 23 -12 40 -12 25 0 61 21 158 93 69 50 234 166 367 256 133 90
257 181 277 202 37 41 45 82 25 120 -18 32 -60 22 -170 -41 -139 -79 -160 -86
-202 -64 -41 21 -78 54 -78 70 0 7 -18 27 -40 44 -22 17 -40 37 -40 44 0 7
-22 32 -50 55 -27 23 -50 48 -50 55 0 8 -19 29 -42 49 -30 25 -51 54 -71 101
l-27 65 0 1271 c0 1146 2 1274 16 1295 9 14 44 45 78 69 127 92 172 153 223
300 32 95 50 237 35 270 -13 30 -56 44 -77 26 -9 -7 -30 -42 -48 -78 -31 -63
-69 -102 -105 -109 -62 -12 -175 -14 -225 -3 -88 18 -212 85 -279 150 -55 53
-58 59 -58 104 0 26 5 79 11 117 10 63 9 73 -7 90 -16 18 -54 24 -81 13z
m-514 -761 c20 -15 77 -64 127 -110 93 -84 130 -104 215 -117 30 -4 54 -16 70
-32 l24 -26 0 -346 0 -347 -25 -45 c-27 -48 -91 -91 -138 -94 -15 -1 -31 -4
-37 -7 -5 -3 -60 -2 -120 1 -83 6 -121 13 -152 29 -43 21 -103 96 -96 118 2 6
-1 14 -6 18 -8 4 -11 152 -11 456 0 380 2 454 15 479 29 56 78 65 134 23z
m253 -1289 c53 -17 122 -73 143 -115 34 -64 11 -128 -67 -192 -110 -90 -265
-96 -390 -15 -96 61 -126 126 -92 199 21 48 61 84 129 115 41 19 67 24 141 24
56 0 108 -6 136 -16z m37 -503 c50 -26 97 -81 110 -128 7 -24 11 -195 11 -458
l0 -420 -24 -51 c-13 -28 -37 -60 -52 -71 -40 -28 -366 -180 -403 -188 -25 -5
-35 -2 -56 19 l-26 26 3 567 3 568 25 44 c43 76 124 109 278 110 73 1 101 -3
131 -18z"/>
</g>
</svg>
